<?xml version="1.0"?>
<svg xmlns="http://www.w3.org/2000/svg" id="line" height="512px" viewBox="0 0 64 64" width="512px" class="hovered-paths"><g><g fill="#c4a2fc"><path d="m48.013 37.688h-2.374a1.5 1.5 0 1 0 0 3h16.788a21.481 21.481 0 0 0 -5.751-13h-15.912a1.5 1.5 0 0 0 0 3h7.249a3.5 3.5 0 0 1 0 7z" data-original="#C4A2FC" class="" style="fill:#FFC736" data-old_color="#C4A2FC"/><path d="m38.264 49h1.375a1.5 1.5 0 1 0 0-3h-19.988a21.579 21.579 0 0 0 7.473 13h16.39a1.5 1.5 0 1 0 0-3h-5.25a3.5 3.5 0 0 1 0-7z" data-original="#C4A2FC" class="" style="fill:#FFC736" data-old_color="#C4A2FC"/><path d="m45.639 42.688a3.5 3.5 0 1 1 0-7h2.374a1.5 1.5 0 0 0 0-3h-7.249a3.5 3.5 0 1 1 0-7h13.8a21.577 21.577 0 0 0 -35.237 16.718c0 .538.042 1.066.08 1.594h20.232a3.5 3.5 0 1 1 0 7h-1.375a1.5 1.5 0 0 0 0 3h5.25a3.5 3.5 0 1 1 0 7h-13.514a21.541 21.541 0 0 0 32.5-18.312z" data-original="#C4A2FC" class="" style="fill:#FFC736" data-old_color="#C4A2FC"/></g><path d="m40.251 1a1 1 0 0 0 -1-1 19.4 19.4 0 0 0 -18.376 13.273 19.4 19.4 0 0 0 -18.375-13.273 1 1 0 0 0 -1 1 19.384 19.384 0 0 0 18.375 19.325v2.975a9.573 9.573 0 0 0 -5.091 2.113l-1.784-1.783a1 1 0 0 0 -1.415 0 13.141 13.141 0 1 0 18.584 0 1 1 0 0 0 -1.414 0l-1.786 1.786a9.573 9.573 0 0 0 -5.094-2.116v-2.975a19.384 19.384 0 0 0 18.376-19.325zm-2.03 1.03a17.407 17.407 0 0 1 -14.734 16.148l11.863-11.864a1 1 0 1 0 -1.414-1.414l-11.863 11.864a17.407 17.407 0 0 1 16.148-14.734zm-31.821 4.284 11.864 11.864a17.407 17.407 0 0 1 -14.734-16.148 17.407 17.407 0 0 1 16.148 14.734l-11.863-11.864a1 1 0 0 0 -1.415 1.414zm23.029 19.469a11.141 11.141 0 1 1 -17.107 0l7.846 7.846a1 1 0 0 0 1.415 0zm-3.89 1.061-4.664 4.664-4.663-4.664a7.619 7.619 0 0 1 9.327 0z" fill="#151a6a" data-original="#151A6A" class="hovered-path active-path" style="fill:#81211B" data-old_color="#151a6a"/></g> </svg>
