<?xml version="1.0" encoding="UTF-8" standalone="no"?>
<svg
   xmlns:dc="http://purl.org/dc/elements/1.1/"
   xmlns:cc="http://creativecommons.org/ns#"
   xmlns:rdf="http://www.w3.org/1999/02/22-rdf-syntax-ns#"
   xmlns:svg="http://www.w3.org/2000/svg"
   xmlns="http://www.w3.org/2000/svg"
   xmlns:sodipodi="http://sodipodi.sourceforge.net/DTD/sodipodi-0.dtd"
   xmlns:inkscape="http://www.inkscape.org/namespaces/inkscape"
   id="line"
   height="496"
   viewBox="0 0 62 62"
   width="496"
   class=""
   version="1.1"
   sodipodi:docname="2014_2.svg"
   inkscape:version="0.92.4 (5da689c313, 2019-01-14)">
  <metadata
     id="metadata13">
    <rdf:RDF>
      <cc:Work
         rdf:about="">
        <dc:format>image/svg+xml</dc:format>
        <dc:type
           rdf:resource="http://purl.org/dc/dcmitype/StillImage" />
        <dc:title></dc:title>
      </cc:Work>
    </rdf:RDF>
  </metadata>
  <defs
     id="defs11" />
  <sodipodi:namedview
     pagecolor="#ffffff"
     bordercolor="#666666"
     borderopacity="1"
     objecttolerance="10"
     gridtolerance="10"
     guidetolerance="10"
     inkscape:pageopacity="0"
     inkscape:pageshadow="2"
     inkscape:window-width="1330"
     inkscape:window-height="931"
     id="namedview9"
     showgrid="false"
     inkscape:zoom="0.4609375"
     inkscape:cx="89.61929"
     inkscape:cy="248"
     inkscape:window-x="0"
     inkscape:window-y="0"
     inkscape:window-maximized="0"
     inkscape:current-layer="line" />
  <g
     id="g6"
     transform="translate(-1,-3)">
    <path
       d="m 63,54 v 6 a 3,3 0 0 1 -3,3 H 44 a 3,3 0 0 1 -3,-3 v -6 a 3,3 0 0 1 3,-3 h 16 a 3,3 0 0 1 3,3 z m -46,0 v 6 a 3,3 0 0 0 3,3 h 16 a 3,3 0 0 0 3,-3 V 54 A 3,3 0 0 0 36,51 H 20 a 3,3 0 0 0 -3,3 z m 31,-5 a 3,3 0 0 0 3,-3 V 40 A 3,3 0 0 0 48,37 H 32 a 3,3 0 0 0 -3,3 v 6 a 3,3 0 0 0 3,3 z M 60,23 H 44 a 3,3 0 0 0 -3,3 v 6 a 3,3 0 0 0 3,3 h 16 a 3,3 0 0 0 3,-3 v -6 a 3,3 0 0 0 -3,-3 z m 0,14 h -4 a 3,3 0 0 0 -3,3 v 6 a 3,3 0 0 0 3,3 h 4 a 3,3 0 0 0 3,-3 v -6 a 3,3 0 0 0 -3,-3 z"
       data-original="#C4A2FC"
       class="active-path"
       style="fill:#ffc736"
       data-old_color="#c4a2fc"
       id="path2"
       inkscape:connector-curvature="0" />
    <path
       d="m 50,49 h -1 v -9 a 3,3 0 0 0 -3,-3 h -5 a 3,3 0 0 0 -3,3 1,1 0 0 1 -1,1 h -1 a 1,1 0 0 1 -1,-1 v -4 a 3,3 0 0 0 -3,-3 h -6 a 3,3 0 0 0 -3,3 V 49 H 19 V 20.82 A 3,3 0 0 0 21,18 v -1 h 23 v 7.42 A 2.91,2.91 0 0 0 45.76,27.15 2,2 0 1 1 43,29 1,1 0 0 0 41,29 4,4 0 1 0 46.53,25.3 0.93,0.93 0 0 1 46,24.42 V 17 a 3,3 0 0 0 2.4,-4.8 L 44.8,7.4 A 1.06,1.06 0 0 0 44,7 H 21 V 6 A 3,3 0 0 0 18,3 H 10 A 3,3 0 0 0 7,6 V 7 H 4 a 3,3 0 0 0 -3,3 v 4 a 3,3 0 0 0 3,3 h 3 v 1 a 3,3 0 0 0 2,2.82 V 49 H 2 a 1,1 0 0 0 0,2 h 48 a 1,1 0 0 0 0,-2 z M 25,36 a 1,1 0 0 1 1,-1 h 6 a 1,1 0 0 1 1,1 v 4 a 3,3 0 0 0 3,3 h 1 a 3,3 0 0 0 3,-3 1,1 0 0 1 1,-1 h 5 a 1,1 0 0 1 1,1 v 9 H 25 Z M 15,21 11,24 v -3 z m 2,1 v 8 l -5.33,-4 z m -6,6 5.33,4 -5.33,4 z m 6,6 v 8 L 11.67,38 Z M 16.33,44 11,48 V 40 Z M 17,46 v 3 h -4 z m 4,-31 v -4 l 3,4 z m 1,-6 h 8 l -4,5.33 z m 6,6 4,-5.33 4,5.33 z m 6,-6 h 8 l -4,5.33 z m 12,6 h -6 l 4,-5.33 2.8,3.73 A 1,1 0 0 1 46,15 Z M 9,6 a 1,1 0 0 1 1,-1 h 8 a 1,1 0 0 1 1,1 v 12 a 1,1 0 0 1 -1,1 H 10 A 1,1 0 0 1 9,18 Z M 4,9 H 6 L 3,13 V 10 A 1,1 0 0 1 4,9 Z m 0,6 3,-4 v 4 z m 26,32 h -2 a 1,1 0 0 1 0,-2 h 2 a 1,1 0 0 1 0,2 z m 8,0 h -2 a 1,1 0 0 1 0,-2 h 2 a 1,1 0 0 1 0,2 z m 6,0 h -2 a 1,1 0 0 1 0,-2 h 2 a 1,1 0 0 1 0,2 z m 0,-4 h -2 a 1,1 0 0 1 0,-2 h 2 a 1,1 0 0 1 0,2 z m -14,0 h -2 a 1,1 0 0 1 0,-2 h 2 a 1,1 0 0 1 0,2 z m 0,-4 h -2 a 1,1 0 0 1 0,-2 h 2 a 1,1 0 0 1 0,2 z"
       data-original="#151A6A"
       class=""
       style="fill:#81211b"
       data-old_color="#151a6a"
       id="path4"
       inkscape:connector-curvature="0" />
  </g>
</svg>
