<?xml version="1.0" encoding="UTF-8" standalone="no"?>
<svg
   xmlns:dc="http://purl.org/dc/elements/1.1/"
   xmlns:cc="http://creativecommons.org/ns#"
   xmlns:rdf="http://www.w3.org/1999/02/22-rdf-syntax-ns#"
   xmlns:svg="http://www.w3.org/2000/svg"
   xmlns="http://www.w3.org/2000/svg"
   xmlns:sodipodi="http://sodipodi.sourceforge.net/DTD/sodipodi-0.dtd"
   xmlns:inkscape="http://www.inkscape.org/namespaces/inkscape"
   id="line"
   height="496"
   viewBox="0 0 62 62"
   width="496"
   class=""
   version="1.1"
   sodipodi:docname="2016.svg"
   inkscape:version="0.92.4 (5da689c313, 2019-01-14)">
  <metadata
     id="metadata29">
    <rdf:RDF>
      <cc:Work
         rdf:about="">
        <dc:format>image/svg+xml</dc:format>
        <dc:type
           rdf:resource="http://purl.org/dc/dcmitype/StillImage" />
        <dc:title></dc:title>
      </cc:Work>
    </rdf:RDF>
  </metadata>
  <defs
     id="defs27" />
  <sodipodi:namedview
     pagecolor="#ffffff"
     bordercolor="#666666"
     borderopacity="1"
     objecttolerance="10"
     gridtolerance="10"
     guidetolerance="10"
     inkscape:pageopacity="0"
     inkscape:pageshadow="2"
     inkscape:window-width="1058"
     inkscape:window-height="713"
     id="namedview25"
     showgrid="false"
     inkscape:zoom="0.4609375"
     inkscape:cx="248"
     inkscape:cy="248"
     inkscape:window-x="0"
     inkscape:window-y="0"
     inkscape:window-maximized="0"
     inkscape:current-layer="line" />
  <g
     id="g22"
     transform="translate(-1,-1)">
    <path
       d="M 52,25 H 24 a 3,3 0 0 0 -3,3 v 32 a 3,3 0 0 0 3,3 h 28 a 3,3 0 0 0 3,-3 V 28 A 3,3 0 0 0 52,25 Z M 49,57 H 27 a 1,1 0 0 1 0,-2 h 22 a 1,1 0 0 1 0,2 z m 0,-6 H 27 a 1,1 0 0 1 0,-2 h 22 a 1,1 0 0 1 0,2 z m 0,-6 H 27 a 1,1 0 0 1 0,-2 h 22 a 1,1 0 0 1 0,2 z m 0,-6 H 27 a 1,1 0 0 1 0,-2 h 22 a 1,1 0 0 1 0,2 z m 0,-6 H 27 a 1,1 0 0 1 0,-2 h 22 a 1,1 0 0 1 0,2 z"
       data-original="#C4A2FC"
       class=""
       style="fill:#ffc736"
       data-old_color="#c4a2fc"
       id="path2"
       inkscape:connector-curvature="0" />
    <path
       d="M 60,17 H 32 a 3,3 0 0 0 -3,3 v 3 h 26 a 2,2 0 0 1 2,2 v 38 h 3 a 3,3 0 0 0 3,-3 V 20 a 3,3 0 0 0 -3,-3 z"
       data-original="#C4A2FC"
       class=""
       style="fill:#ffc736"
       data-old_color="#c4a2fc"
       id="path4"
       inkscape:connector-curvature="0" />
    <g
       id="g20"
       style="fill:#151a6a">
      <path
         d="m 40.707,9.293 -8,-8 A 1,1 0 0 0 32,1 H 8 A 3,3 0 0 0 5,4 V 5 H 4 A 3,3 0 0 0 1,8 v 40 a 3,3 0 0 0 3,3 h 30 a 3,3 0 0 0 3,-3 v -1 h 1 a 3,3 0 0 0 3,-3 V 10 A 1,1 0 0 0 40.707,9.293 Z M 35,48 a 1,1 0 0 1 -1,1 H 4 A 1,1 0 0 1 3,48 V 8 A 1,1 0 0 1 4,7 h 23 v 5 a 3,3 0 0 0 3,3 h 5 z M 33.586,13 H 30 A 1,1 0 0 1 29,12 V 8.414 Z M 39,44 a 1,1 0 0 1 -1,1 H 37 V 14 a 1.014,1.014 0 0 0 -0.294,-0.708 l -8,-8 A 1.012,1.012 0 0 0 28,5 H 7 V 4 A 1,1 0 0 1 8,3 H 31.586 L 39,10.414 Z"
         data-original="#151A6A"
         class="active-path"
         style="fill:#81211b"
         data-old_color="#151A6A"
         id="path6"
         inkscape:connector-curvature="0" />
      <path
         d="M 31,43 H 7 a 1,1 0 0 0 0,2 h 24 a 1,1 0 0 0 0,-2 z"
         data-original="#151A6A"
         class="active-path"
         style="fill:#81211b"
         data-old_color="#151A6A"
         id="path8"
         inkscape:connector-curvature="0" />
      <path
         d="M 31,37 H 7 a 1,1 0 0 0 0,2 h 24 a 1,1 0 0 0 0,-2 z"
         data-original="#151A6A"
         class="active-path"
         style="fill:#81211b"
         data-old_color="#151A6A"
         id="path10"
         inkscape:connector-curvature="0" />
      <path
         d="M 31,31 H 7 a 1,1 0 0 0 0,2 h 24 a 1,1 0 0 0 0,-2 z"
         data-original="#151A6A"
         class="active-path"
         style="fill:#81211b"
         data-old_color="#151A6A"
         id="path12"
         inkscape:connector-curvature="0" />
      <path
         d="M 31,25 H 7 a 1,1 0 0 0 0,2 h 24 a 1,1 0 0 0 0,-2 z"
         data-original="#151A6A"
         class="active-path"
         style="fill:#81211b"
         data-old_color="#151A6A"
         id="path14"
         inkscape:connector-curvature="0" />
      <path
         d="M 31,19 H 7 a 1,1 0 0 0 0,2 h 24 a 1,1 0 0 0 0,-2 z"
         data-original="#151A6A"
         class="active-path"
         style="fill:#81211b"
         data-old_color="#151A6A"
         id="path16"
         inkscape:connector-curvature="0" />
      <path
         d="m 7,15 h 16 a 1,1 0 0 0 0,-2 H 7 a 1,1 0 0 0 0,2 z"
         data-original="#151A6A"
         class="active-path"
         style="fill:#81211b"
         data-old_color="#151A6A"
         id="path18"
         inkscape:connector-curvature="0" />
    </g>
  </g>
</svg>
