<?xml version="1.0" encoding="UTF-8" standalone="no"?>
<svg
   xmlns:dc="http://purl.org/dc/elements/1.1/"
   xmlns:cc="http://creativecommons.org/ns#"
   xmlns:rdf="http://www.w3.org/1999/02/22-rdf-syntax-ns#"
   xmlns:svg="http://www.w3.org/2000/svg"
   xmlns="http://www.w3.org/2000/svg"
   xmlns:sodipodi="http://sodipodi.sourceforge.net/DTD/sodipodi-0.dtd"
   xmlns:inkscape="http://www.inkscape.org/namespaces/inkscape"
   id="line"
   height="496.01605"
   viewBox="0 0 62.002007 62.002006"
   width="496.01605"
   class="hovered-paths"
   version="1.1"
   sodipodi:docname="2019.svg"
   inkscape:version="0.92.4 (5da689c313, 2019-01-14)">
  <metadata
     id="metadata31">
    <rdf:RDF>
      <cc:Work
         rdf:about="">
        <dc:format>image/svg+xml</dc:format>
        <dc:type
           rdf:resource="http://purl.org/dc/dcmitype/StillImage" />
        <dc:title></dc:title>
      </cc:Work>
    </rdf:RDF>
  </metadata>
  <defs
     id="defs29" />
  <sodipodi:namedview
     pagecolor="#ffffff"
     bordercolor="#666666"
     borderopacity="1"
     objecttolerance="10"
     gridtolerance="10"
     guidetolerance="10"
     inkscape:pageopacity="0"
     inkscape:pageshadow="2"
     inkscape:window-width="982"
     inkscape:window-height="688"
     id="namedview27"
     showgrid="false"
     inkscape:zoom="0.4609375"
     inkscape:cx="177.90698"
     inkscape:cy="248.00373"
     inkscape:window-x="0"
     inkscape:window-y="0"
     inkscape:window-maximized="0"
     inkscape:current-layer="line" />
  <g
     id="g24"
     transform="translate(-1,-0.99845914)">
    <g
       id="g12"
       style="fill:#c4a2fc">
      <circle
         cx="46.001999"
         cy="30.999001"
         r="8"
         data-original="#C4A2FC"
         class=""
         style="fill:#ffc736"
         data-old_color="#C4A2FC"
         id="circle2" />
      <path
         d="M 62.476,24.176 A 6.644,6.644 0 0 0 56.945,20.055 6.731,6.731 0 0 0 46,15.522 6.731,6.731 0 0 0 35.056,20.055 6.731,6.731 0 0 0 30.525,31 6.732,6.732 0 0 0 35.058,41.944 6.732,6.732 0 0 0 46,46.476 6.731,6.731 0 0 0 56.943,41.943 6.732,6.732 0 0 0 61.478,31 6.642,6.642 0 0 0 62.476,24.176 Z M 46,41 A 10,10 0 1 1 56,31 10.011,10.011 0 0 1 46,41 Z"
         data-original="#C4A2FC"
         class=""
         style="fill:#ffc736"
         data-old_color="#C4A2FC"
         id="path4"
         inkscape:connector-curvature="0" />
      <path
         d="m 44,49.712 v 10.4 a 4.475,4.475 0 0 1 4,0 v -10.4 a 8.469,8.469 0 0 1 -2,-0.813 8.5,8.5 0 0 1 -2,0.813 z"
         data-original="#C4A2FC"
         class=""
         style="fill:#ffc736"
         data-old_color="#C4A2FC"
         id="path6"
         inkscape:connector-curvature="0" />
      <path
         d="M 37,48.572 V 62 a 1,1 0 0 0 1.447,0.895 L 42,61.117 v -11.13 a 8.778,8.778 0 0 1 -5,-1.415 z"
         data-original="#C4A2FC"
         class=""
         style="fill:#ffc736"
         data-old_color="#C4A2FC"
         id="path8"
         inkscape:connector-curvature="0" />
      <path
         d="m 50,49.987 v 11.13 l 3.552,1.777 A 1,1 0 0 0 55,62 V 48.571 a 8.77,8.77 0 0 1 -5,1.416 z"
         data-original="#C4A2FC"
         class=""
         style="fill:#ffc736"
         data-old_color="#C4A2FC"
         id="path10"
         inkscape:connector-curvature="0" />
    </g>
    <path
       d="M 48,1 H 4 A 3,3 0 0 0 1,4 v 28 a 3,3 0 0 0 3,3 h 44 a 3,3 0 0 0 3,-3 V 4 A 3,3 0 0 0 48,1 Z M 3,9.931 A 8.008,8.008 0 0 0 9.931,3 H 42.069 A 8.008,8.008 0 0 0 49,9.931 V 26.069 A 8.008,8.008 0 0 0 42.069,33 H 9.931 A 8.008,8.008 0 0 0 3,26.069 Z M 49,4 V 7.91 A 6.008,6.008 0 0 1 44.09,3 H 48 a 1,1 0 0 1 1,1 z M 4,3 H 7.91 A 6.008,6.008 0 0 1 3,7.91 V 4 A 1,1 0 0 1 4,3 Z M 3,32 V 28.09 A 6.008,6.008 0 0 1 7.91,33 H 4 A 1,1 0 0 1 3,32 Z m 45,1 H 44.09 A 6.008,6.008 0 0 1 49,28.09 V 32 a 1,1 0 0 1 -1,1 z"
       data-original="#151A6A"
       class="hovered-path active-path"
       style="fill:#81211b"
       data-old_color="#151a6a"
       id="path14"
       inkscape:connector-curvature="0" />
    <path
       d="m 23,11 h 6 a 1,1 0 0 0 0,-2 h -6 a 1,1 0 0 0 0,2 z"
       data-original="#151A6A"
       class="hovered-path active-path"
       style="fill:#81211b"
       data-old_color="#151a6a"
       id="path16"
       inkscape:connector-curvature="0" />
    <path
       d="m 10,16 h 32 a 1,1 0 0 0 0,-2 H 10 a 1,1 0 0 0 0,2 z"
       data-original="#151A6A"
       class="hovered-path active-path"
       style="fill:#81211b"
       data-old_color="#151a6a"
       id="path18"
       inkscape:connector-curvature="0" />
    <path
       d="M 34,19 H 18 a 1,1 0 0 0 0,2 h 16 a 1,1 0 0 0 0,-2 z"
       data-original="#151A6A"
       class="hovered-path active-path"
       style="fill:#81211b"
       data-old_color="#151a6a"
       id="path20"
       inkscape:connector-curvature="0" />
    <path
       d="M 32,26 A 2.9,2.9 0 0 0 29.952,26.746 3.691,3.691 0 0 0 27,25 3.221,3.221 0 0 0 24.859,25.845 3.058,3.058 0 0 0 24.43,25.086 2.926,2.926 0 0 0 22,24 c -3.738,0 -4.922,4.563 -4.97,4.757 a 1.000218,1.000218 0 0 0 1.94,0.488 C 18.978,29.212 19.824,26 22,26 a 0.964,0.964 0 0 1 0.853,0.316 3.573,3.573 0 0 1 0.177,2.441 1,1 0 0 0 1.918,0.559 C 25.111,28.827 25.937,27 27,27 c 1.033,0 1.849,1.717 2.052,2.316 A 0.994,0.994 0 0 0 30.147,29.982 1.006,1.006 0 0 0 31,29.012 1.000018,1.000018 0 1 1 33,29 a 1,1 0 0 0 2,0 2.916,2.916 0 0 0 -3,-3 z"
       data-original="#151A6A"
       class="hovered-path active-path"
       style="fill:#81211b"
       data-old_color="#151a6a"
       id="path22"
       inkscape:connector-curvature="0" />
  </g>
</svg>
