<?xml version="1.0" encoding="UTF-8" standalone="no"?>
<svg
   xmlns:dc="http://purl.org/dc/elements/1.1/"
   xmlns:cc="http://creativecommons.org/ns#"
   xmlns:rdf="http://www.w3.org/1999/02/22-rdf-syntax-ns#"
   xmlns:svg="http://www.w3.org/2000/svg"
   xmlns="http://www.w3.org/2000/svg"
   xmlns:sodipodi="http://sodipodi.sourceforge.net/DTD/sodipodi-0.dtd"
   xmlns:inkscape="http://www.inkscape.org/namespaces/inkscape"
   id="line"
   height="496"
   viewBox="0 0 62 62"
   width="496"
   class=""
   version="1.1"
   sodipodi:docname="2020.svg"
   inkscape:version="0.92.4 (5da689c313, 2019-01-14)">
  <metadata
     id="metadata17">
    <rdf:RDF>
      <cc:Work
         rdf:about="">
        <dc:format>image/svg+xml</dc:format>
        <dc:type
           rdf:resource="http://purl.org/dc/dcmitype/StillImage" />
        <dc:title />
      </cc:Work>
    </rdf:RDF>
  </metadata>
  <defs
     id="defs15" />
  <sodipodi:namedview
     pagecolor="#ffffff"
     bordercolor="#666666"
     borderopacity="1"
     objecttolerance="10"
     gridtolerance="10"
     guidetolerance="10"
     inkscape:pageopacity="0"
     inkscape:pageshadow="2"
     inkscape:window-width="1920"
     inkscape:window-height="1033"
     id="namedview13"
     showgrid="false"
     inkscape:zoom="0.4609375"
     inkscape:cx="-157.15254"
     inkscape:cy="299.06155"
     inkscape:window-x="-4"
     inkscape:window-y="-4"
     inkscape:window-maximized="1"
     inkscape:current-layer="line"
     inkscape:showpageshadow="false" />
  <g
     id="g10"
     transform="translate(-1,-1)">
    <path
       d="m 50,45 a 8.853,8.853 0 0 0 -1.894,0.206 14.481,14.481 0 0 0 -28.212,0 A 8.853,8.853 0 0 0 18,45 9,9 0 0 0 18,63 h 32 a 9,9 0 0 0 0,-18 z m -7.5,4.5 a 1,1 0 0 1 -1,-1 7.508,7.508 0 0 0 -7.5,-7.5 1,1 0 0 1 0,-2 9.511,9.511 0 0 1 9.5,9.5 1,1 0 0 1 -1,1 z"
       data-original="#C4A2FC"
       class=""
       style="fill:#ffc736"
       data-old_color="#c4a2fc"
       id="path2"
       inkscape:connector-curvature="0" />
    <g
       id="g8"
       style="fill:#151a6a">
      <path
         d="M 36.6,18.65 C 36.6,8.423 29.955,1 20.8,1 11.645,1 5,8.423 5,18.65 5,28.877 10.983,37.989 18.316,39.706 l -1.8,1.44 a 2,2 0 0 0 0.507,3.42 10.208,10.208 0 0 0 2.778,0.679 V 50 a 1,1 0 0 0 2,0 v -4.755 a 10.208,10.208 0 0 0 2.778,-0.679 2,2 0 0 0 0.5,-3.419 l -1.8,-1.44 C 30.617,37.989 36.6,28.888 36.6,18.65 Z M 23.834,42.709 a 8.141,8.141 0 0 1 -6.07,0 L 20.8,40.28 23.839,42.707 Z M 20.8,38 C 13.578,38 7,28.777 7,18.65 7,9.436 12.675,3 20.8,3 28.925,3 34.6,9.436 34.6,18.65 34.6,28.777 28.022,38 20.8,38 Z"
         data-original="#151A6A"
         class="active-path"
         style="fill:#81211b"
         data-old_color="#151A6A"
         id="path4"
         inkscape:connector-curvature="0" />
      <path
         d="m 20.8,5 a 1,1 0 0 0 0,2 c 5.77,0 9.8,4.791 9.8,11.65 a 1,1 0 0 0 2,0 C 32.6,10.613 27.748,5 20.8,5 Z"
         data-original="#151A6A"
         class="active-path"
         style="fill:#81211b"
         data-old_color="#151A6A"
         id="path6"
         inkscape:connector-curvature="0" />
    </g>
  </g>
  <flowRoot
     xml:space="preserve"
     id="flowRoot830"
     style="font-style:normal;font-weight:normal;font-size:40px;line-height:1.25;font-family:sans-serif;letter-spacing:0px;word-spacing:0px;fill:#000000;fill-opacity:1;stroke:none"
     transform="matrix(0.125,0,0,0.125,-5,-1)"><flowRegion
       id="flowRegion832"><rect
         id="rect834"
         width="158.37288"
         height="188.74576"
         x="273.35593"
         y="130.16949" /></flowRegion><flowPara
       id="flowPara836" /></flowRoot>  <text
     xml:space="preserve"
     style="font-style:normal;font-variant:normal;font-weight:500;font-stretch:normal;font-size:18.33333397px;line-height:0;font-family:roboto;-inkscape-font-specification:'roboto Medium';letter-spacing:-2.85250974px;word-spacing:-0.30125001px;fill:#81211b;fill-opacity:1;stroke:none;stroke-width:0.13235918"
     x="10.317956"
     y="25.13183"
     id="text840"
     transform="scale(0.9444004,1.0588729)"><tspan
       sodipodi:role="line"
       id="tspan838"
       x="10.317956"
       y="25.13183"
       style="font-style:normal;font-variant:normal;font-weight:500;font-stretch:normal;font-family:roboto;-inkscape-font-specification:'roboto Medium';letter-spacing:-2.85250974px;word-spacing:-0.30125001px;fill:#81211b;fill-opacity:1;stroke-width:0.13235918">10</tspan></text>
</svg>
